#!OML:ASF I:\Actors\actors\Patient Classification 2\Patient 1\Session 1\actor1.ASF
:FULLY-SPECIFIED
:DEGREES
481
root -0.61623 18.9067 5.08153 16.5473 -5.95509 2.10643
lowerback 27.2797 -3.37147 4.82677
upperback 3.35698 -2.46135 3.79547
thorax -11.4196 -1.24843 2.4297
lowerneck -7.1028 -3.44702 -2.74032
upperneck -1.32327 -4.42246 1.84943
head 0.882663 -2.18791 0.901559
rclavicle -6.12257e-014 1.59028e-015
rhumerus 14.2588 8.73358 -40.2276
rradius 148.034
rwrist -20.944
rhand -4.00954 -47.8298
rfingers 7.12502
rthumb 21.7448 -76.6284
lclavicle -6.12257e-014 1.59028e-015
lhumerus 19.6094 -35.5692 54.5269
lradius 139.277
lwrist 6.56043
lhand -12.4899 -25.8653
lfingers 7.12502
lthumb 13.5849 3.67145
rfemur -15.8953 9.28789 8.14415
rtibia 5.03154
rfoot -17.417 -16.4787
rtoes -8.22501
lfemur -26.2817 8.65235 -18.6723
ltibia 24.6052
lfoot -14.9213 9.22192
ltoes -56.0075
482
root -0.614819 18.9064 5.0771 16.5927 -5.9169 2.10612
lowerback 27.3193 -3.32836 4.79917
upperback 3.33665 -2.40796 3.80772
thorax -11.4622 -1.22234 2.44332
lowerneck -7.07072 -3.31971 -2.71854
upperneck -1.31407 -4.25312 1.71112
head 0.871728 -2.10511 0.860457
rclavicle 2.38542e-014 -6.36111e-015
rhumerus 13.8449 9.00088 -40.509
rradius 148.278
rwrist -21.1879
rhand -3.81815 -47.7247
rfingers 7.12502
rthumb 21.9286 -76.5019
lclavicle 2.38542e-014 -6.36111e-015
lhumerus 19.5434 -35.301 54.7812
lradius 139.135
lwrist 6.26369
lhand -14.307 -25.6568
lfingers 7.12502
lthumb 11.8331 3.98884
rfemur -15.9705 9.23953 8.13883
rtibia 5.076
rfoot -17.4088 -16.4644
rtoes -8.1685
lfemur -26.3601 8.66725 -18.6864
ltibia 24.6165
lfoot -14.9452 9.14942
ltoes -56.2246
483
root -0.610501 18.9074 5.07267 16.6259 -5.83534 2.03553
lowerback 27.4047 -3.34588 4.84496
upperback 3.32048 -2.40421 3.84411
thorax -11.5258 -1.22135 2.46341
lowerneck -7.11223 -3.2644 -2.68173
upperneck -1.21734 -4.18029 1.63431
head 0.904746 -2.06972 0.83135
rclavicle 9.54166e-015 -5.725e-014
rhumerus 13.5478 9.28776 -40.9299
rradius 148.447
rwrist -21.1441
rhand -4.00091 -47.5733
rfingers 7.12502
rthumb 21.7531 -76.371
lclavicle 9.54166e-015 -5.725e-014
lhumerus 19.4813 -35.4291 54.6927
lradius 139.064
lwrist 6.31126
lhand -14.9283 -25.9088
lfingers 7.12502
lthumb 11.2339 3.77042
rfemur -16.0244 9.17279 8.21273
rtibia 5.12724
rfoot -17.4134 -16.4465
rtoes -8.18739
lfemur -26.3895 8.47759 -18.5626
ltibia 24.6273
lfoot -15.1437 9.16799
ltoes -55.4547
484
root -0.606636 18.9072 5.06943 16.6609 -5.76465 1.97576
lowerback 27.4602 -3.36201 4.8351
upperback 3.31495 -2.417 3.8894
thorax -11.5587 -1.2253 2.52919
lowerneck -7.24302 -3.30349 -2.60885
upperneck -0.956911 -4.23466 1.56665
head 1.00716 -2.09795 0.792617
rclavicle 3.89618e-014 -7.95139e-016
rhumerus 13.6259 9.10128 -41.2456
rradius 148.333
rwrist -21.1033
rhand -4.52978 -47.4497
rfingers 7.12502
rthumb 21.2451 -76.3054
lclavicle 3.89618e-014 -7.95139e-016
lhumerus 19.534 -36.0168 54.2992
lradius 139.085
lwrist 6.75373
lhand -13.4419 -26.3269
lfingers 7.12502
lthumb 12.6672 3.26897
rfemur -16.0614 9.11323 8.2743
rtibia 5.14443
rfoot -17.4068 -16.4353
rtoes -8.28898
lfemur -26.4213 8.32259 -18.466
ltibia 24.6456
lfoot -15.2976 9.19632
ltoes -55.0244
485
root -0.604762 18.9059 5.06616 16.7102 -5.68872 1.93029
lowerback 27.3794 -3.40012 4.79595
upperback 3.3282 -2.4787 3.93761
thorax -11.4971 -1.25071 2.6237
lowerneck -7.14245 -3.37399 -2.60582
upperneck -0.838476 -4.33125 1.53054
head 1.02843 -2.14733 0.778356
rclavicle -4.77083e-015 -7.95139e-015
rhumerus 13.9836 8.7764 -41.4581
rradius 148.046
rwrist -21.0393
rhand -5.0061 -47.3777
rfingers 7.12502
rthumb 20.7876 -76.2842
lclavicle -4.77083e-015 -7.95139e-015
lhumerus 19.5342 -36.7686 53.8073
lradius 139.162
lwrist 7.99155
lhand -13.1956 -26.1377
lfingers 7.12502
lthumb 12.9047 3.44332
rfemur -16.0958 9.04531 8.33324
rtibia 5.14044
rfoot -17.3996 -16.4281
rtoes -8.18332
lfemur -26.512 8.35189 -18.4443
ltibia 24.6626
lfoot -15.2116 9.19462
ltoes -55.1654
486
root -0.602306 18.904 5.06067 16.7513 -5.61341 1.90162
lowerback 27.1547 -3.45862 4.76473
upperback 3.3702 -2.57972 3.97141
thorax -11.3278 -1.2956 2.70064
lowerneck -6.64462 -3.4298 -2.74857
upperneck -1.08647 -4.40779 1.57685
head 0.871344 -2.18599 0.82372
rclavicle 1.11319e-014 1.27222e-014
rhumerus 14.3597 8.78917 -41.5586
rradius 147.782
rwrist -20.9626
rhand -5.18392 -47.2137
rfingers 7.12502
rthumb 20.6167 -76.1388
lclavicle 1.11319e-014 1.27222e-014
lhumerus 19.3619 -37.2884 53.4895
lradius 139.187
lwrist 9.17294
lhand -13.3336 -26.2413
lfingers 7.12502
lthumb 12.7716 3.34806
rfemur -16.1434 8.97412 8.37569
rtibia 5.16042
rfoot -17.4363 -16.4078
rtoes -7.95516
lfemur -26.6298 8.43311 -18.468
ltibia 24.6747
lfoot -15.0235 9.21578
ltoes -55.697
487
root -0.600409 18.9028 5.05646 16.7763 -5.57975 1.91285
lowerback 27.1471 -3.48311 4.7467
upperback 3.38181 -2.6185 3.9634
thorax -11.3097 -1.31272 2.71472
lowerneck -6.57895 -3.43929 -2.87846
upperneck -1.187 -4.41317 1.62149
head 0.8333 -2.18788 0.861064
rclavicle -7.95139e-016 -1.35174e-014
rhumerus 14.5001 9.09343 -41.4198
rradius 147.705
rwrist -21.2062
rhand -5.022 -47.1222
rfingers 7.12502
rthumb 20.7723 -76.0303
lclavicle -7.95139e-016 -1.35174e-014
lhumerus 19.1768 -37.2882 53.5339
lradius 139.122
lwrist 9.41239
lhand -13.4422 -26.6912
lfingers 7.12502
lthumb 12.6669 2.90467
rfemur -16.182 8.93254 8.36678
rtibia 5.17188
rfoot -17.4686 -16.4041
rtoes -8.00117
lfemur -26.7112 8.48081 -18.514
ltibia 24.6947
lfoot -14.9491 9.18641
ltoes -56.25
488
root -0.600171 18.9044 5.05435 16.8075 -5.56677 1.9516
lowerback 27.1058 -3.48835 4.72878
upperback 3.38698 -2.63917 3.9213
thorax -11.2833 -1.32257 2.68149
lowerneck -6.41578 -3.26997 -2.95425
upperneck -1.3666 -4.18645 1.72642
head 0.748884 -2.07271 0.91687
rclavicle -1.03368e-014 3.18055e-015
rhumerus 14.179 9.84776 -41.1607
rradius 147.95
rwrist -21.4643
rhand -4.71159 -47.2871
rfingers 7.12502
rthumb 21.0705 -76.1623
lclavicle -1.03368e-014 3.18055e-015
lhumerus 19.0562 -36.8072 53.8415
lradius 139.038
lwrist 8.81468
lhand -13.675 -27.0683
lfingers 7.12502
lthumb 12.4425 2.54139
rfemur -16.2323 8.90227 8.32867
rtibia 5.19918
rfoot -17.4728 -16.4218
rtoes -8.2178
lfemur -26.7499 8.41148 -18.52
ltibia 24.7224
lfoot -15.068 9.04861
ltoes -55.3753
489
root -0.600172 18.9061 5.0502 16.8479 -5.55625 2.01454
lowerback 27.0891 -3.47465 4.68858
upperback 3.36164 -2.63976 3.86651
thorax -11.3048 -1.32244 2.64257
lowerneck -6.24961 -3.02148 -3.03318
upperneck -1.52512 -3.85408 1.91968
head 0.670255 -1.90349 1.00323
rclavicle 2.3059e-014 1.43125e-014
rhumerus 13.5556 10.694 -41.0053
rradius 148.324
rwrist -21.5351
rhand -4.36481 -47.5931
rfingers 7.12502
rthumb 21.4036 -76.4309
lclavicle 2.3059e-014 1.43125e-014
lhumerus 19.0703 -36.1716 54.1676
lradius 139.003
lwrist 8.09986
lhand -13.946 -27.3995
lfingers 7.12502
lthumb 12.1812 2.22587
rfemur -16.339 8.86464 8.26395
rtibia 5.29913
rfoot -17.4755 -16.4277
rtoes -8.50097
lfemur -26.8118 8.3277 -18.5566
ltibia 24.7427
lfoot -15.1134 8.99332
ltoes -54.8739
